# xmcd CD database file
#
# Track frame offsets:
#	150
#	12122
#	22773
#	31986
#	43024
#	52735
#	61185
#	69231
#	80339
#	92349
#	103422
#	113077
#	123213
#	135791
#
# Disc length: 1973 seconds
#
# Revision: 0
# Processed by: cddbd v1.5.2PL0 Copyright (c) Steve Scherf et al.
# Submitted via: CDex 1.51
#
DISCID=9807b30e
DTITLE=Various 911 - Country All-Time #1 Hits
DYEAR=1900
DGENRE=Country
TTITLE0=Johnny Cash - Ring Of Fire
TTITLE1=Connie Smith - Once A Day
TTITLE2=Buck Owens - Love's Gonna Live Here
TTITLE3=Jim Reeves - I Guess I'm Crazy
TTITLE4=George Jones - The Race Is On
TTITLE5=Roger Miller - Dang Me
TTITLE6=Elvis Presley - Let Me Be Your Teddy Bear
TTITLE7=Marty Robbins - Begging To You
TTITLE8=Skeeter Davis - The End Of The World
TTITLE9=Buck Owens - My Heart Skips A Beat
TTITLE10=Faron Young - Hello Walls
TTITLE11=Carl Perkins - Blue Suede Shoes
TTITLE12=Bill Anderson - Still
TTITLE13=Johnny Cash - Understand Your Man
EXTD=
EXTT0=
EXTT1=
EXTT2=
EXTT3=
EXTT4=
EXTT5=
EXTT6=
EXTT7=
EXTT8=
EXTT9=
EXTT10=
EXTT11=
EXTT12=
EXTT13=
PLAYORDER=
